<svg xmlns="http://www.w3.org/2000/svg" version="1.1" xmlns:xlink="http://www.w3.org/1999/xlink" xmlns:svgjs="http://svgjs.com/svgjs" width="1280" height="720" preserveAspectRatio="none" viewBox="0 0 1280 720"><g mask="url(&quot;#SvgjsMask1362&quot;)" fill="none"><rect width="1280" height="720" x="0" y="0" fill="rgba(44, 31, 67, 1)"></rect><path d="M48 720L768 0L1149 0L429 720z" fill="url(#SvgjsLinearGradient1363)"></path><path d="M459.40000000000003 720L1179.4 0L1743.4 0L1023.4000000000001 720z" fill="url(#SvgjsLinearGradient1363)"></path><path d="M1217 720L497 0L384.5 0L1104.5 720z" fill="url(#SvgjsLinearGradient1364)"></path><path d="M796.5999999999999 720L76.59999999999991 0L-347.9000000000001 0L372.0999999999999 720z" fill="url(#SvgjsLinearGradient1364)"></path><path d="M854.781374487033 720L1280 294.7813744870329L1280 720z" fill="url(#SvgjsLinearGradient1363)"></path><path d="M0 720L425.2186255129671 720L 0 294.7813744870329z" fill="url(#SvgjsLinearGradient1364)"></path></g><defs><mask id="SvgjsMask1362"><rect width="1280" height="720" fill="#ffffff"></rect></mask><linearGradient x1="0%" y1="100%" x2="100%" y2="0%" id="SvgjsLinearGradient1363"><stop stop-color="rgba(91, 58, 158, 0.2)" offset="0"></stop><stop stop-opacity="0" stop-color="rgba(91, 58, 158, 0.2)" offset="0.66"></stop></linearGradient><linearGradient x1="100%" y1="100%" x2="0%" y2="0%" id="SvgjsLinearGradient1364"><stop stop-color="rgba(91, 58, 158, 0.2)" offset="0"></stop><stop stop-opacity="0" stop-color="rgba(91, 58, 158, 0.2)" offset="0.66"></stop></linearGradient></defs></svg>