<?xml version="1.0" standalone="no"?>
<!DOCTYPE svg PUBLIC "-//W3C//DTD SVG 20010904//EN"
 "http://www.w3.org/TR/2001/REC-SVG-20010904/DTD/svg10.dtd">
<svg version="1.0" xmlns="http://www.w3.org/2000/svg"
 width="83.000000pt" height="83.000000pt" viewBox="0 0 83.000000 83.000000"
 preserveAspectRatio="xMidYMid meet">
<metadata>
Created by potrace 1.10, written by Peter Selinger 2001-2011
</metadata>
<g transform="translate(0.000000,83.000000) scale(0.100000,-0.100000)"
fill="#f37c7c" stroke="none">
<path d="M245 715 c-135 -59 -155 -73 -155 -112 0 -13 -5 -31 -11 -41 -18 -29
-2 -150 21 -162 12 -6 20 -27 25 -66 9 -78 10 -79 63 -110 26 -15 50 -31 53
-36 3 -6 10 -9 15 -8 5 1 41 -14 79 -32 74 -35 105 -60 80 -66 -18 -4 -152 64
-158 80 -4 10 -6 10 -6 1 -1 -7 10 -20 24 -29 14 -9 25 -25 25 -35 0 -13 17
-28 55 -46 l54 -27 52 24 c45 22 76 57 71 81 -1 4 6 6 16 5 12 -1 18 8 20 29
3 27 11 34 71 61 64 29 68 33 74 70 10 59 8 109 -4 121 -8 8 -7 38 2 109 l12
98 -25 21 c-36 31 -236 117 -283 122 -32 3 -66 -7 -170 -52z m294 0 c131 -56
171 -80 170 -102 0 -11 -3 -13 -6 -5 -2 6 -12 12 -22 12 -25 0 -223 -89 -245
-110 -17 -16 -19 -36 -20 -183 0 -91 2 -168 5 -172 4 -3 39 10 79 30 40 20 74
34 77 31 3 -3 -1 -8 -9 -11 -8 -3 -14 -17 -13 -33 2 -19 1 -20 -2 -4 -2 12 -6
22 -9 22 -2 0 -31 -13 -64 -30 -33 -16 -67 -30 -76 -30 -27 0 -253 121 -258
139 -12 38 -47 336 -42 356 4 16 37 34 138 78 73 31 146 57 162 57 15 0 76
-20 135 -45z m-436 -227 c6 -67 4 -88 -8 -77 -10 11 -18 149 -8 149 6 0 13
-32 16 -72z m552 -50 c25 -12 45 -25 45 -28 0 -4 -18 -16 -40 -29 -22 -12 -44
-31 -50 -41 -14 -26 -13 -93 2 -108 20 -20 -16 -15 -66 9 -40 20 -44 26 -50
67 -13 93 -10 99 42 126 58 31 61 31 117 4z m-175 -333 c-14 -8 -29 -14 -35
-14 -5 0 1 6 15 14 14 8 30 14 35 14 6 0 -1 -6 -15 -14z m-150 -6 c0 -5 5 -7
10 -4 6 3 10 1 10 -5 0 -6 5 -8 10 -5 6 3 10 1 10 -5 0 -6 4 -9 9 -6 5 3 20
-3 32 -14 34 -28 3 -27 -56 2 -40 20 -61 48 -35 48 6 0 10 -5 10 -11z m177
-16 c-4 -3 -7 0 -7 7 0 7 3 10 7 7 3 -4 3 -10 0 -14z"/>
<path d="M340 600 c-69 -36 -59 -39 13 -4 l53 26 52 -26 c28 -14 55 -26 59
-26 11 1 -100 59 -112 59 -5 0 -35 -13 -65 -29z"/>
<path d="M213 573 c-16 -6 -17 -63 -2 -169 11 -80 12 -82 48 -99 20 -9 46 -19
59 -21 28 -5 62 12 62 31 0 20 -54 20 -74 0 -14 -14 -19 -14 -44 -1 -27 14
-31 23 -41 91 -12 80 -14 115 -7 115 2 0 41 -16 87 -35 45 -20 84 -34 86 -31
2 2 -13 10 -34 19 -21 8 -60 25 -88 37 l-50 22 29 15 c22 12 26 17 15 24 -15
9 -27 10 -46 2z"/>
<path d="M152 379 c4 -29 33 -48 49 -32 10 10 8 17 -6 33 -24 27 -47 26 -43
-1z"/>
<path d="M230 270 c0 -12 40 -34 47 -26 9 8 -17 36 -33 36 -8 0 -14 -4 -14
-10z"/>
<path d="M341 266 c2 -2 15 -9 29 -15 24 -11 24 -11 6 3 -16 13 -49 24 -35 12z"/>
<path d="M510 358 c0 -49 10 -76 28 -81 10 -3 26 -8 37 -12 11 -3 7 1 -10 11
-16 9 -33 22 -37 28 -12 17 -9 61 4 74 9 9 8 12 -5 12 -13 0 -17 -9 -17 -32z"/>
</g>
</svg>
